<?xml version="1.0" encoding="utf-8"?>
<!-- Generator: Adobe Illustrator 23.0.5, SVG Export Plug-In . SVG Version: 6.00 Build 0)  -->
<svg version="1.1" id="Layer_1" xmlns="http://www.w3.org/2000/svg" xmlns:xlink="http://www.w3.org/1999/xlink" x="0px" y="0px"
	 viewBox="0 0 679.27 298.96" style="enable-background:new 0 0 679.27 298.96;" xml:space="preserve">
<style type="text/css">
	.st0{fill-rule:evenodd;clip-rule:evenodd;fill:#F9B033;}
	.st1{fill-rule:evenodd;clip-rule:evenodd;fill:#32AD6C;}
	.st2{fill-rule:evenodd;clip-rule:evenodd;fill:#086BD9;}
	.st3{fill:#333333;}
	.st4{fill:#086BD9;}
	.st5{fill:#045790;}
	.st6{fill:#FFD110;}
	.st7{fill:#EABC5F;}
	.st8{fill:#D99419;}
	.st9{fill:#FFFFFF;}
	.st10{fill:#D0D2D3;}
	.st11{fill:#F1F1F2;}
	.st12{fill:#E7E8E9;}
	.st13{fill:#47A347;}
</style>
<g>
	<path class="st2" d="M510.01,57.27c5.98-10.81,14.15-19.21,24.73-25.3c10.58-5.98,22.66-9.09,36-9.09
		c16.45,0,30.48,4.37,42.21,13.11s19.55,20.7,23.46,35.77h-37.15c-2.76-5.87-6.67-10.35-11.73-13.34c-5.06-2.99-10.81-4.6-17.25-4.6
		c-10.35,0-18.86,3.68-25.3,10.93c-6.44,7.25-9.66,17.02-9.66,29.21c0,12.19,3.22,21.97,9.66,29.21s14.84,10.93,25.3,10.93
		c6.44,0,12.19-1.5,17.25-4.6c5.06-3.11,8.97-7.48,11.73-13.34h37.15c-3.91,15.07-11.73,27.03-23.46,35.65
		c-11.73,8.74-25.76,13-42.21,13c-13.46,0-25.42-2.99-36-9.09c-10.58-5.98-18.86-14.38-24.73-25.07c-5.98-10.7-8.86-23-8.86-36.8
		C501.16,80.39,504.03,68.2,510.01,57.27"/>
	<path class="st2" d="M298.29,132.83c3.11-2.53,4.6-6.33,4.6-11.27c0-4.95-1.61-8.74-4.83-11.62s-7.71-4.14-13.23-4.14h-24.38v30.82
		h24.84C290.81,136.74,295.18,135.48,298.29,132.83 M260.34,80.96h22.08c5.52,0,9.78-1.27,12.77-3.68c2.99-2.42,4.49-6.1,4.49-10.81
		c0-4.72-1.5-8.4-4.49-10.93c-2.99-2.53-7.25-3.8-12.77-3.8h-22.08V80.96z M329.8,104.65c4.83,6.33,7.25,13.46,7.25,21.62
		c0,11.62-4.03,20.93-12.08,27.72c-8.05,6.79-19.44,10.24-33.81,10.24h-64.52V24.61h62.33c14.15,0,25.07,3.22,33.01,9.78
		c7.94,6.56,11.96,15.3,11.96,26.45c0,8.28-2.19,15.07-6.44,20.47c-4.26,5.41-10.01,9.2-17.14,11.39
		C318.41,94.3,324.85,98.33,329.8,104.65z"/>
	<path class="st2" d="M359.7,57.27c5.98-10.81,14.15-19.21,24.73-25.3c10.58-5.98,22.66-9.09,36-9.09
		c16.45,0,30.48,4.37,42.21,13.11c11.73,8.74,19.55,20.7,23.46,35.77h-37.15c-2.76-5.87-6.67-10.35-11.73-13.34
		s-10.81-4.6-17.25-4.6c-10.35,0-18.86,3.68-25.3,10.93S385,81.77,385,93.96c0,12.19,3.22,21.97,9.66,29.21
		c6.44,7.25,14.84,10.93,25.3,10.93c6.44,0,12.19-1.5,17.25-4.6s8.97-7.48,11.73-13.34h37.15c-3.91,15.07-11.73,27.03-23.46,35.65
		c-11.73,8.74-25.76,13-42.21,13c-13.46,0-25.42-2.99-36-9.09c-10.58-5.98-18.86-14.38-24.73-25.07c-5.98-10.7-8.86-23-8.86-36.8
		C350.85,80.39,353.84,68.2,359.7,57.27"/>
	<g>
		<path class="st0" d="M133.98,120.96c-4,11.38-6.18,23.7-6.18,36.5c0,2.37,0.12,4.86,0.24,7.23h21.81h12.12h20.84V61.94
			c-18.54,10.67-33.57,26.66-43.26,45.74C137.5,112.07,135.56,116.45,133.98,120.96"/>
		<path class="st1" d="M108.42,77.82c-1.94-19.79-9.09-38.04-19.87-53.21H42.98v33.06C67.1,57.91,89.51,65.38,108.42,77.82z"/>
		<path class="st2" d="M102.96,24.61c11.27,18.37,17.81,39.82,18.05,62.93c3.76,3.2,7.15,6.52,10.42,10.19
			c11.88-21.09,29.81-38.4,51.5-49.3v-23.7L102.96,24.61L102.96,24.61z"/>
		<path class="st2" d="M94.36,164.69h21.57c-0.12-2.37-0.24-4.86-0.24-7.23c0-17.07,3.51-33.42,9.82-48.11
			c-1.7-2.13-3.64-4.15-5.45-6.16c-3.51-3.67-7.27-7.11-11.27-10.19C90.6,78.65,67.7,70,42.86,69.53v95.16h35.38H94.36z"/>
	</g>
	<g>
		<g>
			<path class="st3" d="M68.1,196.61c1.41,1.77,2.11,3.76,2.11,6c0,1.91-0.49,3.63-1.49,5.16c-0.99,1.53-2.42,2.74-4.3,3.62
				c-1.87,0.88-4.05,1.32-6.54,1.32H42.86v-37.56h14.32c2.56,0,4.76,0.43,6.59,1.3c1.84,0.87,3.22,2.03,4.16,3.49
				c0.94,1.46,1.41,3.09,1.41,4.89c0,2.16-0.58,3.96-1.73,5.4c-1.15,1.44-2.7,2.5-4.65,3.19C64.98,193.78,66.69,194.84,68.1,196.61z
				 M49.02,190.94h7.62c2.02,0,3.59-0.46,4.73-1.38c1.13-0.92,1.7-2.24,1.7-3.97c0-1.69-0.57-3.02-1.7-3.97
				c-1.13-0.95-2.71-1.43-4.73-1.43h-7.62V190.94z M62.26,206.18c1.19-1.01,1.78-2.41,1.78-4.22c0-1.84-0.63-3.3-1.89-4.38
				c-1.26-1.08-2.94-1.62-5.03-1.62h-8.1v11.73h8.32C59.43,207.69,61.07,207.18,62.26,206.18z"/>
			<path class="st3" d="M105.23,182.94v29.78h-6.16v-3.51c-0.97,1.23-2.24,2.19-3.81,2.89c-1.57,0.7-3.23,1.05-5,1.05
				c-2.34,0-4.44-0.49-6.3-1.46c-1.86-0.97-3.32-2.41-4.38-4.32c-1.06-1.91-1.59-4.21-1.59-6.92v-17.51h6.1v16.59
				c0,2.67,0.67,4.71,2,6.13c1.33,1.42,3.15,2.14,5.46,2.14c2.3,0,4.14-0.71,5.48-2.14c1.35-1.42,2.03-3.47,2.03-6.13v-16.59H105.23
				z"/>
			<path class="st3" d="M127.17,187.96h-5.51v24.75h-6.22v-24.75h-3.51v-5.03h3.51v-2.11c0-3.42,0.91-5.92,2.73-7.49
				c1.82-1.57,4.67-2.35,8.56-2.35v5.13c-1.87,0-3.19,0.35-3.94,1.05c-0.76,0.7-1.13,1.92-1.13,3.65v2.11h5.51V187.96z"/>
			<path class="st3" d="M146.46,187.96h-5.51v24.75h-6.22v-24.75h-3.51v-5.03h3.51v-2.11c0-3.42,0.91-5.92,2.73-7.49
				c1.82-1.57,4.67-2.35,8.56-2.35v5.13c-1.87,0-3.19,0.35-3.94,1.05c-0.76,0.7-1.13,1.92-1.13,3.65v2.11h5.51V187.96z"/>
			<path class="st3" d="M169.18,183.96c1.71-2.92,4.04-5.19,6.97-6.84c2.94-1.64,6.15-2.46,9.65-2.46c4,0,7.55,0.98,10.67,2.95
				c3.12,1.96,5.38,4.75,6.78,8.35h-7.4c-0.97-1.98-2.32-3.46-4.05-4.43c-1.73-0.97-3.73-1.46-6-1.46c-2.49,0-4.7,0.56-6.65,1.68
				c-1.95,1.12-3.47,2.72-4.57,4.81c-1.1,2.09-1.65,4.52-1.65,7.29c0,2.78,0.55,5.21,1.65,7.3c1.1,2.09,2.62,3.7,4.57,4.84
				c1.95,1.13,4.16,1.7,6.65,1.7c2.27,0,4.27-0.49,6-1.46c1.73-0.97,3.08-2.45,4.05-4.43h7.4c-1.4,3.6-3.66,6.38-6.78,8.32
				s-6.67,2.92-10.67,2.92c-3.53,0-6.76-0.82-9.67-2.46c-2.92-1.64-5.24-3.92-6.95-6.84c-1.71-2.92-2.57-6.21-2.57-9.89
				C166.61,190.18,167.47,186.88,169.18,183.96z"/>
			<path class="st3" d="M221.55,183.72c1.49-0.84,3.27-1.27,5.32-1.27v6.38h-1.57c-2.41,0-4.24,0.61-5.48,1.84
				c-1.24,1.23-1.86,3.35-1.86,6.38v15.67h-6.16v-29.78h6.16v4.32C218.85,185.75,220.05,184.57,221.55,183.72z"/>
			<path class="st3" d="M260.98,200.12h-22.75c0.18,2.38,1.06,4.29,2.65,5.73c1.58,1.44,3.53,2.16,5.84,2.16
				c3.31,0,5.65-1.39,7.03-4.16h6.65c-0.9,2.74-2.53,4.98-4.89,6.73c-2.36,1.75-5.29,2.62-8.78,2.62c-2.85,0-5.4-0.64-7.65-1.92
				c-2.25-1.28-4.02-3.08-5.3-5.4s-1.92-5.02-1.92-8.08c0-3.06,0.62-5.76,1.87-8.08c1.24-2.32,2.99-4.11,5.24-5.38
				c2.25-1.26,4.84-1.89,7.75-1.89c2.81,0,5.31,0.61,7.51,1.84c2.19,1.23,3.91,2.94,5.13,5.16c1.23,2.21,1.84,4.76,1.84,7.65
				C261.19,198.21,261.12,199.22,260.98,200.12z M254.76,195.15c-0.04-2.27-0.85-4.09-2.43-5.46c-1.59-1.37-3.55-2.05-5.89-2.05
				c-2.13,0-3.94,0.68-5.46,2.03c-1.51,1.35-2.41,3.18-2.7,5.49H254.76z"/>
			<path class="st3" d="M268.4,189.75c1.24-2.31,2.94-4.1,5.08-5.38c2.14-1.28,4.51-1.92,7.11-1.92c2.34,0,4.38,0.46,6.13,1.38
				c1.75,0.92,3.14,2.06,4.19,3.43v-4.32h6.22v29.78h-6.22v-4.43c-1.04,1.4-2.47,2.58-4.27,3.51c-1.8,0.93-3.85,1.4-6.16,1.4
				c-2.56,0-4.9-0.66-7.03-1.97c-2.13-1.32-3.81-3.15-5.05-5.51c-1.24-2.36-1.87-5.03-1.87-8.03
				C266.54,194.7,267.16,192.05,268.4,189.75z M289.64,192.45c-0.85-1.51-1.95-2.67-3.32-3.46c-1.37-0.79-2.85-1.19-4.43-1.19
				c-1.59,0-3.06,0.39-4.43,1.16c-1.37,0.77-2.48,1.91-3.32,3.4c-0.85,1.49-1.27,3.27-1.27,5.32c0,2.05,0.42,3.86,1.27,5.4
				c0.84,1.55,1.96,2.73,3.35,3.54c1.39,0.81,2.86,1.22,4.41,1.22c1.58,0,3.06-0.4,4.43-1.19c1.37-0.79,2.48-1.95,3.32-3.49
				c0.85-1.53,1.27-3.32,1.27-5.38C290.91,195.75,290.49,193.96,289.64,192.45z"/>
			<path class="st3" d="M313.77,187.96v16.48c0,1.12,0.26,1.92,0.78,2.41c0.52,0.49,1.41,0.73,2.67,0.73h3.78v5.13h-4.86
				c-2.77,0-4.9-0.65-6.38-1.95s-2.22-3.41-2.22-6.32v-16.48h-3.51v-5.03h3.51v-7.4h6.22v7.4h7.24v5.03H313.77z"/>
			<path class="st3" d="M328.36,177.86c-0.75-0.76-1.13-1.69-1.13-2.81c0-1.12,0.38-2.05,1.13-2.81c0.76-0.76,1.69-1.13,2.81-1.13
				c1.08,0,2,0.38,2.76,1.13c0.76,0.76,1.13,1.69,1.13,2.81c0,1.12-0.38,2.05-1.13,2.81c-0.76,0.76-1.68,1.13-2.76,1.13
				C330.06,178.99,329.12,178.61,328.36,177.86z M334.2,182.94v29.78h-6.16v-29.78H334.2z"/>
			<path class="st3" d="M355.17,207.2l8.43-24.26h6.54l-11.35,29.78h-7.35l-11.3-29.78h6.59L355.17,207.2z"/>
			<path class="st3" d="M403.21,200.12h-22.75c0.18,2.38,1.06,4.29,2.65,5.73c1.58,1.44,3.53,2.16,5.84,2.16
				c3.31,0,5.65-1.39,7.03-4.16h6.65c-0.9,2.74-2.53,4.98-4.89,6.73c-2.36,1.75-5.29,2.62-8.78,2.62c-2.85,0-5.4-0.64-7.65-1.92
				c-2.25-1.28-4.02-3.08-5.3-5.4c-1.28-2.32-1.92-5.02-1.92-8.08c0-3.06,0.62-5.76,1.87-8.08c1.24-2.32,2.99-4.11,5.24-5.38
				c2.25-1.26,4.84-1.89,7.75-1.89c2.81,0,5.31,0.61,7.51,1.84c2.19,1.23,3.91,2.94,5.13,5.16c1.23,2.21,1.84,4.76,1.84,7.65
				C403.43,198.21,403.36,199.22,403.21,200.12z M397,195.15c-0.04-2.27-0.85-4.09-2.43-5.46c-1.59-1.37-3.55-2.05-5.89-2.05
				c-2.13,0-3.94,0.68-5.46,2.03c-1.51,1.35-2.41,3.18-2.7,5.49H397z"/>
			<path class="st3" d="M426.75,183.96c1.71-2.92,4.04-5.19,6.97-6.84c2.94-1.64,6.15-2.46,9.65-2.46c4,0,7.55,0.98,10.67,2.95
				c3.12,1.96,5.38,4.75,6.78,8.35h-7.4c-0.97-1.98-2.32-3.46-4.05-4.43c-1.73-0.97-3.73-1.46-6-1.46c-2.49,0-4.7,0.56-6.65,1.68
				c-1.95,1.12-3.47,2.72-4.57,4.81c-1.1,2.09-1.65,4.52-1.65,7.29c0,2.78,0.55,5.21,1.65,7.3c1.1,2.09,2.62,3.7,4.57,4.84
				c1.95,1.13,4.16,1.7,6.65,1.7c2.27,0,4.27-0.49,6-1.46c1.73-0.97,3.08-2.45,4.05-4.43h7.4c-1.4,3.6-3.66,6.38-6.78,8.32
				s-6.67,2.92-10.67,2.92c-3.53,0-6.76-0.82-9.67-2.46c-2.92-1.64-5.24-3.92-6.95-6.84c-1.71-2.92-2.57-6.21-2.57-9.89
				C424.18,190.18,425.04,186.88,426.75,183.96z"/>
			<path class="st3" d="M474.66,211.28c-2.27-1.28-4.05-3.08-5.35-5.4s-1.95-5.02-1.95-8.08c0-3.03,0.67-5.71,2-8.05
				c1.33-2.34,3.15-4.14,5.46-5.4c2.31-1.26,4.88-1.89,7.73-1.89c2.85,0,5.42,0.63,7.73,1.89c2.31,1.26,4.12,3.06,5.46,5.4
				c1.33,2.34,2,5.03,2,8.05c0,3.03-0.69,5.71-2.05,8.05c-1.37,2.34-3.23,4.15-5.59,5.43c-2.36,1.28-4.96,1.92-7.81,1.92
				C479.47,213.2,476.93,212.56,474.66,211.28z M486.73,206.72c1.39-0.76,2.51-1.89,3.38-3.4c0.87-1.51,1.3-3.35,1.3-5.51
				c0-2.16-0.41-3.99-1.24-5.49c-0.83-1.49-1.93-2.62-3.3-3.38c-1.37-0.76-2.85-1.13-4.43-1.13c-1.59,0-3.05,0.38-4.41,1.13
				c-1.35,0.76-2.42,1.88-3.22,3.38c-0.79,1.5-1.19,3.32-1.19,5.49c0,3.21,0.82,5.68,2.46,7.43s3.7,2.62,6.19,2.62
				C483.86,207.85,485.35,207.47,486.73,206.72z"/>
			<path class="st3" d="M511.35,172.72v39.99h-6.16v-39.99H511.35z"/>
			<path class="st3" d="M526.97,172.72v39.99h-6.16v-39.99H526.97z"/>
			<path class="st3" d="M563.5,200.12h-22.75c0.18,2.38,1.06,4.29,2.65,5.73c1.58,1.44,3.53,2.16,5.84,2.16
				c3.31,0,5.65-1.39,7.03-4.16h6.65c-0.9,2.74-2.53,4.98-4.89,6.73c-2.36,1.75-5.29,2.62-8.78,2.62c-2.85,0-5.4-0.64-7.65-1.92
				c-2.25-1.28-4.02-3.08-5.3-5.4c-1.28-2.32-1.92-5.02-1.92-8.08c0-3.06,0.62-5.76,1.87-8.08s2.99-4.11,5.24-5.38
				c2.25-1.26,4.84-1.89,7.75-1.89c2.81,0,5.31,0.61,7.51,1.84c2.19,1.23,3.91,2.94,5.13,5.16c1.23,2.21,1.84,4.76,1.84,7.65
				C563.72,198.21,563.64,199.22,563.5,200.12z M557.29,195.15c-0.04-2.27-0.85-4.09-2.43-5.46c-1.59-1.37-3.55-2.05-5.89-2.05
				c-2.13,0-3.94,0.68-5.46,2.03c-1.51,1.35-2.41,3.18-2.7,5.49H557.29z"/>
			<path class="st3" d="M589.25,183.83c1.78,0.92,3.18,2.06,4.19,3.43v-4.32h6.22v30.26c0,2.74-0.58,5.18-1.73,7.32
				c-1.15,2.14-2.82,3.83-5,5.05c-2.18,1.23-4.78,1.84-7.81,1.84c-4.03,0-7.38-0.95-10.05-2.84c-2.67-1.89-4.18-4.46-4.54-7.7h6.1
				c0.47,1.55,1.47,2.8,3,3.75c1.53,0.96,3.36,1.43,5.48,1.43c2.49,0,4.49-0.76,6.03-2.27c1.53-1.51,2.3-3.71,2.3-6.59v-4.97
				c-1.04,1.41-2.46,2.59-4.24,3.54c-1.78,0.95-3.81,1.43-6.08,1.43c-2.59,0-4.96-0.66-7.11-1.97c-2.14-1.32-3.84-3.15-5.08-5.51
				s-1.87-5.03-1.87-8.03c0-2.99,0.62-5.64,1.87-7.94c1.24-2.31,2.94-4.1,5.08-5.38c2.14-1.28,4.51-1.92,7.11-1.92
				C585.42,182.45,587.47,182.91,589.25,183.83z M592.17,192.45c-0.85-1.51-1.95-2.67-3.32-3.46c-1.37-0.79-2.85-1.19-4.43-1.19
				c-1.59,0-3.06,0.39-4.43,1.16c-1.37,0.77-2.48,1.91-3.32,3.4c-0.85,1.49-1.27,3.27-1.27,5.32c0,2.05,0.42,3.86,1.27,5.4
				c0.84,1.55,1.96,2.73,3.35,3.54c1.39,0.81,2.86,1.22,4.41,1.22c1.58,0,3.06-0.4,4.43-1.19c1.37-0.79,2.48-1.95,3.32-3.49
				c0.85-1.53,1.27-3.32,1.27-5.38C593.44,195.75,593.02,193.96,592.17,192.45z"/>
			<path class="st3" d="M636.19,200.12h-22.75c0.18,2.38,1.06,4.29,2.65,5.73c1.58,1.44,3.53,2.16,5.84,2.16
				c3.31,0,5.65-1.39,7.03-4.16h6.65c-0.9,2.74-2.53,4.98-4.89,6.73c-2.36,1.75-5.29,2.62-8.78,2.62c-2.85,0-5.4-0.64-7.65-1.92
				c-2.25-1.28-4.02-3.08-5.3-5.4c-1.28-2.32-1.92-5.02-1.92-8.08c0-3.06,0.62-5.76,1.87-8.08c1.24-2.32,2.99-4.11,5.24-5.38
				c2.25-1.26,4.84-1.89,7.75-1.89c2.81,0,5.31,0.61,7.51,1.84c2.19,1.23,3.91,2.94,5.13,5.16c1.23,2.21,1.84,4.76,1.84,7.65
				C636.4,198.21,636.33,199.22,636.19,200.12z M629.97,195.15c-0.04-2.27-0.85-4.09-2.43-5.46c-1.59-1.37-3.55-2.05-5.89-2.05
				c-2.13,0-3.94,0.68-5.46,2.03c-1.51,1.35-2.41,3.18-2.7,5.49H629.97z"/>
		</g>
	</g>
	<g>
		<path class="st4" d="M144.3,243.73l-7.85,26.95h-4.91l-5.56-20.39l-5.9,20.39l-4.88,0.04l-7.5-26.99h4.61l5.48,21.95l5.94-21.95
			h4.88l5.52,21.83l5.52-21.83H144.3z"/>
		<path class="st4" d="M166.96,261.65h-16.03c0.13,1.71,0.75,3.08,1.87,4.11c1.12,1.03,2.49,1.55,4.11,1.55
			c2.34,0,3.99-0.99,4.95-2.99h4.68c-0.64,1.96-1.78,3.57-3.45,4.83c-1.66,1.25-3.73,1.88-6.19,1.88c-2.01,0-3.8-0.46-5.39-1.38
			c-1.59-0.92-2.83-2.21-3.73-3.88c-0.9-1.67-1.35-3.6-1.35-5.8s0.44-4.13,1.32-5.8c0.88-1.67,2.11-2.95,3.69-3.86
			c1.59-0.9,3.41-1.36,5.47-1.36c1.98,0,3.74,0.44,5.29,1.32c1.55,0.88,2.75,2.11,3.62,3.7c0.86,1.59,1.29,3.42,1.29,5.49
			C167.12,260.28,167.06,261,166.96,261.65z M162.58,258.08c-0.03-1.63-0.6-2.93-1.71-3.92c-1.12-0.98-2.5-1.47-4.15-1.47
			c-1.5,0-2.78,0.48-3.85,1.45c-1.07,0.97-1.7,2.28-1.9,3.94H162.58z"/>
		<path class="st4" d="M181.65,250.05c1.21-2.09,2.84-3.73,4.91-4.91c2.07-1.18,4.34-1.76,6.8-1.76c2.82,0,5.33,0.71,7.52,2.11
			c2.2,1.41,3.79,3.41,4.78,5.99h-5.22c-0.69-1.42-1.64-2.48-2.86-3.18c-1.22-0.7-2.63-1.05-4.23-1.05c-1.75,0-3.31,0.4-4.68,1.2
			c-1.37,0.8-2.45,1.95-3.22,3.45c-0.77,1.5-1.16,3.24-1.16,5.24c0,1.99,0.39,3.74,1.16,5.23c0.77,1.5,1.85,2.66,3.22,3.47
			c1.37,0.81,2.93,1.22,4.68,1.22c1.6,0,3.01-0.35,4.23-1.05c1.22-0.7,2.17-1.76,2.86-3.18h5.22c-0.99,2.58-2.58,4.57-4.78,5.97
			c-2.2,1.4-4.7,2.09-7.52,2.09c-2.49,0-4.76-0.59-6.82-1.76c-2.06-1.18-3.69-2.81-4.89-4.9c-1.21-2.09-1.81-4.46-1.81-7.1
			C179.84,254.51,180.44,252.15,181.65,250.05z"/>
		<path class="st4" d="M217.6,249.88c1.05-0.61,2.3-0.91,3.75-0.91v4.58h-1.11c-1.7,0-2.99,0.44-3.87,1.32
			c-0.88,0.88-1.31,2.4-1.31,4.58v11.24h-4.34v-21.36h4.34v3.1C215.7,251.33,216.55,250.49,217.6,249.88z"/>
		<path class="st4" d="M244.43,261.65H228.4c0.13,1.71,0.75,3.08,1.87,4.11c1.12,1.03,2.49,1.55,4.11,1.55
			c2.34,0,3.99-0.99,4.95-2.99h4.68c-0.64,1.96-1.78,3.57-3.45,4.83c-1.66,1.25-3.73,1.88-6.19,1.88c-2.01,0-3.8-0.46-5.39-1.38
			c-1.59-0.92-2.83-2.21-3.73-3.88c-0.9-1.67-1.35-3.6-1.35-5.8s0.44-4.13,1.32-5.8c0.88-1.67,2.11-2.95,3.69-3.86
			c1.59-0.9,3.41-1.36,5.47-1.36c1.98,0,3.74,0.44,5.29,1.32c1.55,0.88,2.75,2.11,3.62,3.7c0.86,1.59,1.29,3.42,1.29,5.49
			C244.59,260.28,244.53,261,244.43,261.65z M240.05,258.08c-0.03-1.63-0.6-2.93-1.71-3.92c-1.12-0.98-2.5-1.47-4.15-1.47
			c-1.5,0-2.78,0.48-3.85,1.45c-1.07,0.97-1.7,2.28-1.9,3.94H240.05z"/>
		<path class="st4" d="M248.72,254.2c0.88-1.65,2.07-2.94,3.58-3.86s3.18-1.38,5.01-1.38c1.65,0,3.09,0.33,4.32,0.99
			c1.23,0.66,2.21,1.48,2.95,2.46v-3.1h4.38v21.36h-4.38v-3.18c-0.74,1.01-1.74,1.85-3.01,2.52c-1.27,0.67-2.72,1.01-4.34,1.01
			c-1.8,0-3.45-0.47-4.95-1.41c-1.5-0.94-2.69-2.26-3.56-3.96c-0.88-1.69-1.31-3.61-1.31-5.76
			C247.4,257.76,247.84,255.86,248.72,254.2z M263.69,256.14c-0.6-1.09-1.38-1.91-2.34-2.48c-0.97-0.57-2.01-0.85-3.12-0.85
			c-1.12,0-2.16,0.28-3.12,0.83c-0.97,0.56-1.75,1.37-2.34,2.44c-0.6,1.07-0.9,2.35-0.9,3.82c0,1.47,0.3,2.77,0.9,3.88
			c0.6,1.11,1.38,1.96,2.36,2.54c0.98,0.58,2.01,0.87,3.1,0.87c1.12,0,2.16-0.28,3.12-0.85c0.97-0.57,1.75-1.4,2.34-2.5
			c0.6-1.1,0.9-2.38,0.9-3.86C264.58,258.51,264.28,257.23,263.69,256.14z"/>
		<path class="st4" d="M279.74,252.92v11.83c0,0.8,0.18,1.38,0.55,1.73c0.37,0.35,1,0.52,1.89,0.52h2.67v3.68h-3.43
			c-1.96,0-3.45-0.46-4.5-1.4c-1.04-0.93-1.56-2.44-1.56-4.54v-11.83h-2.48v-3.61h2.48V244h4.38v5.31h5.1v3.61H279.74z"/>
		<path class="st4" d="M307.92,261.65h-16.03c0.13,1.71,0.75,3.08,1.87,4.11c1.12,1.03,2.49,1.55,4.11,1.55
			c2.34,0,3.99-0.99,4.95-2.99h4.68c-0.64,1.96-1.78,3.57-3.45,4.83c-1.66,1.25-3.73,1.88-6.19,1.88c-2.01,0-3.8-0.46-5.39-1.38
			c-1.59-0.92-2.83-2.21-3.73-3.88c-0.9-1.67-1.35-3.6-1.35-5.8s0.44-4.13,1.32-5.8c0.88-1.67,2.11-2.95,3.69-3.86
			c1.59-0.9,3.41-1.36,5.47-1.36c1.98,0,3.74,0.44,5.29,1.32c1.55,0.88,2.75,2.11,3.62,3.7c0.86,1.59,1.29,3.42,1.29,5.49
			C308.08,260.28,308.03,261,307.92,261.65z M303.54,258.08c-0.03-1.63-0.6-2.93-1.71-3.92c-1.12-0.98-2.5-1.47-4.15-1.47
			c-1.5,0-2.78,0.48-3.85,1.45c-1.07,0.97-1.7,2.28-1.9,3.94H303.54z"/>
		<path class="st4" d="M329.88,252.92v11.83c0,0.8,0.18,1.38,0.55,1.73c0.37,0.35,1,0.52,1.89,0.52h2.67v3.68h-3.43
			c-1.96,0-3.45-0.46-4.5-1.4c-1.04-0.93-1.56-2.44-1.56-4.54v-11.83h-2.48v-3.61h2.48V244h4.38v5.31h5.1v3.61H329.88z"/>
		<path class="st4" d="M354.12,250.01c1.26,0.7,2.25,1.73,2.97,3.1c0.72,1.37,1.08,3.02,1.08,4.96v12.6h-4.3v-11.94
			c0-1.91-0.47-3.38-1.41-4.4c-0.94-1.02-2.22-1.53-3.85-1.53c-1.63,0-2.91,0.51-3.87,1.53c-0.95,1.02-1.43,2.49-1.43,4.4v11.94
			h-4.34v-28.69h4.34v9.81c0.74-0.9,1.67-1.6,2.8-2.09c1.13-0.49,2.37-0.74,3.71-0.74C351.44,248.97,352.87,249.32,354.12,250.01z"
			/>
		<path class="st4" d="M382.78,261.65h-16.03c0.13,1.71,0.75,3.08,1.87,4.11c1.12,1.03,2.49,1.55,4.11,1.55
			c2.34,0,3.99-0.99,4.95-2.99h4.68c-0.64,1.96-1.78,3.57-3.45,4.83c-1.66,1.25-3.73,1.88-6.19,1.88c-2.01,0-3.8-0.46-5.39-1.38
			c-1.59-0.92-2.83-2.21-3.73-3.88c-0.9-1.67-1.35-3.6-1.35-5.8s0.44-4.13,1.32-5.8c0.88-1.67,2.11-2.95,3.69-3.86
			c1.59-0.9,3.41-1.36,5.47-1.36c1.98,0,3.74,0.44,5.29,1.32c1.55,0.88,2.75,2.11,3.62,3.7c0.86,1.59,1.29,3.42,1.29,5.49
			C382.94,260.28,382.89,261,382.78,261.65z M378.4,258.08c-0.03-1.63-0.6-2.93-1.71-3.92c-1.12-0.98-2.5-1.47-4.15-1.47
			c-1.5,0-2.78,0.48-3.85,1.45c-1.07,0.97-1.7,2.28-1.9,3.94H378.4z"/>
		<path class="st4" d="M397.47,250.05c1.21-2.09,2.84-3.73,4.91-4.91c2.07-1.18,4.34-1.76,6.8-1.76c2.82,0,5.33,0.71,7.52,2.11
			c2.2,1.41,3.79,3.41,4.78,5.99h-5.22c-0.69-1.42-1.64-2.48-2.86-3.18c-1.22-0.7-2.63-1.05-4.23-1.05c-1.75,0-3.31,0.4-4.68,1.2
			c-1.37,0.8-2.45,1.95-3.22,3.45c-0.77,1.5-1.16,3.24-1.16,5.24c0,1.99,0.39,3.74,1.16,5.23c0.77,1.5,1.85,2.66,3.22,3.47
			c1.37,0.81,2.93,1.22,4.68,1.22c1.6,0,3.01-0.35,4.23-1.05c1.22-0.7,2.17-1.76,2.86-3.18h5.22c-0.99,2.58-2.58,4.57-4.78,5.97
			c-2.2,1.4-4.7,2.09-7.52,2.09c-2.49,0-4.76-0.59-6.82-1.76c-2.06-1.18-3.69-2.81-4.89-4.9c-1.21-2.09-1.81-4.46-1.81-7.1
			C395.66,254.51,396.26,252.15,397.47,250.05z"/>
		<path class="st4" d="M433.42,249.88c1.05-0.61,2.3-0.91,3.75-0.91v4.58h-1.11c-1.7,0-2.99,0.44-3.87,1.32
			c-0.88,0.88-1.31,2.4-1.31,4.58v11.24h-4.34v-21.36h4.34v3.1C431.52,251.33,432.37,250.49,433.42,249.88z"/>
		<path class="st4" d="M460.25,261.65h-16.03c0.13,1.71,0.75,3.08,1.87,4.11c1.12,1.03,2.49,1.55,4.11,1.55
			c2.34,0,3.99-0.99,4.95-2.99h4.68c-0.64,1.96-1.78,3.57-3.45,4.83c-1.66,1.25-3.73,1.88-6.19,1.88c-2.01,0-3.8-0.46-5.39-1.38
			c-1.59-0.92-2.83-2.21-3.73-3.88c-0.9-1.67-1.35-3.6-1.35-5.8s0.44-4.13,1.32-5.8c0.88-1.67,2.11-2.95,3.69-3.86
			c1.59-0.9,3.41-1.36,5.47-1.36c1.98,0,3.74,0.44,5.29,1.32c1.55,0.88,2.75,2.11,3.62,3.7c0.86,1.59,1.29,3.42,1.29,5.49
			C460.41,260.28,460.35,261,460.25,261.65z M455.87,258.08c-0.03-1.63-0.6-2.93-1.71-3.92c-1.12-0.98-2.5-1.47-4.15-1.47
			c-1.5,0-2.78,0.48-3.85,1.45c-1.07,0.97-1.7,2.28-1.9,3.94H455.87z"/>
		<path class="st4" d="M464.54,254.2c0.88-1.65,2.07-2.94,3.58-3.86s3.18-1.38,5.01-1.38c1.65,0,3.09,0.33,4.32,0.99
			c1.23,0.66,2.21,1.48,2.95,2.46v-3.1h4.38v21.36h-4.38v-3.18c-0.74,1.01-1.74,1.85-3.01,2.52c-1.27,0.67-2.72,1.01-4.34,1.01
			c-1.8,0-3.45-0.47-4.95-1.41c-1.5-0.94-2.69-2.26-3.56-3.96c-0.88-1.69-1.32-3.61-1.32-5.76
			C463.22,257.76,463.66,255.86,464.54,254.2z M479.51,256.14c-0.6-1.09-1.38-1.91-2.34-2.48c-0.97-0.57-2.01-0.85-3.12-0.85
			c-1.12,0-2.16,0.28-3.12,0.83c-0.97,0.56-1.75,1.37-2.34,2.44c-0.6,1.07-0.9,2.35-0.9,3.82c0,1.47,0.3,2.77,0.9,3.88
			c0.6,1.11,1.38,1.96,2.36,2.54c0.98,0.58,2.01,0.87,3.1,0.87c1.12,0,2.16-0.28,3.12-0.85c0.97-0.57,1.75-1.4,2.34-2.5
			c0.6-1.1,0.9-2.38,0.9-3.86C480.4,258.51,480.1,257.23,479.51,256.14z"/>
		<path class="st4" d="M495.56,252.92v11.83c0,0.8,0.18,1.38,0.55,1.73c0.37,0.35,1,0.52,1.89,0.52h2.67v3.68h-3.43
			c-1.96,0-3.45-0.46-4.5-1.4c-1.04-0.93-1.56-2.44-1.56-4.54v-11.83h-2.48v-3.61h2.48V244h4.38v5.31h5.1v3.61H495.56z"/>
		<path class="st4" d="M508.4,269.65c-1.6-0.92-2.86-2.21-3.77-3.88c-0.91-1.67-1.37-3.6-1.37-5.8c0-2.17,0.47-4.1,1.41-5.78
			c0.94-1.68,2.22-2.97,3.85-3.88c1.63-0.9,3.44-1.36,5.45-1.36c2.01,0,3.82,0.45,5.45,1.36c1.62,0.9,2.91,2.2,3.85,3.88
			c0.94,1.68,1.41,3.61,1.41,5.78s-0.48,4.1-1.45,5.78c-0.97,1.68-2.28,2.98-3.94,3.9c-1.66,0.92-3.5,1.38-5.5,1.38
			C511.79,271.03,510,270.57,508.4,269.65z M516.91,266.38c0.98-0.54,1.77-1.36,2.38-2.44c0.61-1.08,0.91-2.4,0.91-3.95
			s-0.29-2.86-0.88-3.94c-0.58-1.07-1.36-1.88-2.32-2.42s-2.01-0.81-3.12-0.81c-1.12,0-2.15,0.27-3.1,0.81s-1.71,1.35-2.27,2.42
			c-0.56,1.07-0.84,2.38-0.84,3.94c0,2.3,0.58,4.08,1.73,5.33c1.15,1.25,2.61,1.88,4.36,1.88
			C514.88,267.19,515.93,266.92,516.91,266.38z"/>
		<path class="st4" d="M535.84,249.88c1.05-0.61,2.3-0.91,3.75-0.91v4.58h-1.11c-1.7,0-2.99,0.44-3.87,1.32
			c-0.88,0.88-1.31,2.4-1.31,4.58v11.24h-4.34v-21.36h4.34v3.1C533.94,251.33,534.78,250.49,535.84,249.88z"/>
		<path class="st4" d="M546.77,270.12c-1.31-0.61-2.34-1.43-3.1-2.48c-0.76-1.05-1.17-2.22-1.22-3.51h4.5
			c0.08,0.9,0.5,1.66,1.28,2.27c0.77,0.61,1.75,0.91,2.91,0.91c1.22,0,2.17-0.24,2.84-0.72c0.67-0.48,1.01-1.09,1.01-1.84
			c0-0.8-0.37-1.4-1.12-1.78c-0.75-0.39-1.94-0.81-3.56-1.28c-1.57-0.44-2.86-0.87-3.85-1.28c-0.99-0.41-1.85-1.05-2.57-1.9
			c-0.72-0.85-1.08-1.98-1.08-3.37c0-1.14,0.33-2.18,0.99-3.12c0.66-0.94,1.61-1.69,2.84-2.23c1.23-0.54,2.65-0.81,4.25-0.81
			c2.39,0,4.31,0.61,5.77,1.84c1.46,1.23,2.24,2.9,2.34,5.02h-4.34c-0.08-0.96-0.46-1.72-1.14-2.29c-0.69-0.57-1.61-0.85-2.78-0.85
			c-1.14,0-2.02,0.22-2.63,0.66c-0.61,0.44-0.91,1.02-0.91,1.75c0,0.57,0.2,1.05,0.61,1.43c0.41,0.39,0.9,0.69,1.49,0.91
			c0.58,0.22,1.45,0.5,2.59,0.83c1.52,0.41,2.77,0.83,3.75,1.26c0.98,0.43,1.82,1.05,2.53,1.88c0.71,0.83,1.08,1.93,1.11,3.3
			c0,1.22-0.33,2.3-0.99,3.26c-0.66,0.96-1.59,1.71-2.8,2.25c-1.21,0.54-2.62,0.81-4.25,0.81
			C549.55,271.03,548.08,270.73,546.77,270.12z"/>
		<path class="st4" d="M565.22,270.14c-0.53-0.54-0.8-1.21-0.8-2.02s0.27-1.47,0.8-2.02c0.53-0.54,1.19-0.81,1.98-0.81
			c0.76,0,1.41,0.27,1.94,0.81c0.53,0.54,0.8,1.22,0.8,2.02s-0.27,1.47-0.8,2.02c-0.53,0.54-1.18,0.81-1.94,0.81
			C566.42,270.95,565.76,270.68,565.22,270.14z M569.37,243.73l-0.49,18.8h-3.62l-0.49-18.8H569.37z"/>
	</g>
</g>
</svg>
